<svg xmlns="http://www.w3.org/2000/svg" width="219" height="32" fill="none" xmlns:v="https://vecta.io/nano"><path d="M53.726 6.607h-5.319v7.595h5.319c2.391 0 4.004-1.42 4.004-3.828s-1.614-3.767-4.004-3.767zm4.183 21.057l-5.02-10.312h-4.482v10.312h-3.586V3.273h9.143c4.482 0 7.351 2.964 7.351 7.163.12 3.026-1.853 5.743-4.721 6.484l5.438 10.806h-4.124v-.062zM73.268 15.19c-.837-1.914-3.048-2.717-4.9-1.853-.777.37-1.434 1.05-1.793 1.853-.299.741-.478 1.544-.418 2.346h7.59c0-.803-.12-1.605-.478-2.346zm-7.112 4.816c0 2.964 1.554 4.878 4.303 4.878 1.554.062 3.048-.556 4.064-1.791l2.151 2.099c-1.614 1.852-3.885 2.841-6.275 2.717-4.243 0-7.59-2.285-7.59-8.892 0-5.619 2.809-8.892 7.112-8.892 4.542 0 7.171 3.396 7.171 8.336v1.544H66.156zm22.53-4.816c-.27-.681-.735-1.259-1.334-1.657a3.38 3.38 0 0 0-2.013-.566c-1.434-.062-2.809.803-3.347 2.223-.299.741-.478 1.544-.418 2.346h7.59c0-.803-.179-1.605-.478-2.346zm-7.112 4.816c0 2.964 1.554 4.878 4.303 4.878 1.554.123 3.048-.556 4.064-1.791l2.151 2.099c-1.614 1.852-3.944 2.841-6.335 2.717-4.243 0-7.59-2.285-7.59-8.892 0-5.619 2.809-8.892 7.112-8.892 4.542 0 7.112 3.396 7.112 8.336v1.544H81.574zm19.004-6.792c-3.047 0-3.525 2.655-3.525 5.743s.478 5.804 3.525 5.804 3.467-2.717 3.467-5.804-.359-5.743-3.467-5.743zm3.586 14.449v-1.852c-1.076 1.42-2.749 2.161-4.422 2.038-1.494.062-2.988-.494-4.123-1.544-1.673-1.729-1.912-4.755-1.912-7.348s.179-5.558 1.912-7.348c1.135-1.05 2.57-1.606 4.064-1.544 1.793 0 3.167.432 4.422 1.976V3.273h3.407v24.453h-3.347v-.062zm11.833 0V3.273h15.12v3.334h-11.534v7.101h9.86v3.273h-9.86v7.348h11.534v3.334h-15.12zm21.693 0c-3.227 0-4.601-2.223-4.601-4.816V3.273h3.406v19.389c0 1.359.478 2.038 1.853 2.038h1.494v2.964h-2.152zm9.741.247c-2.749 0-5.079-.494-7.051-2.47l2.211-2.285c1.315 1.235 3.048 1.914 4.84 1.791 2.032 0 3.706-.741 3.706-2.408 0-1.173-.658-1.914-2.271-2.038l-2.69-.247c-3.167-.309-4.96-1.729-4.96-4.816 0-3.396 2.809-5.311 6.335-5.311 2.51 0 4.661.556 6.215 1.976l-2.151 2.223c-1.195-.926-2.69-1.359-4.184-1.297-2.031 0-3.047.926-3.047 2.223 0 1.05.537 1.853 2.33 1.976l2.63.247c3.167.309 5.02 1.852 5.02 4.94 0 3.643-2.988 5.496-6.992 5.496h.059zm18.228-12.72a3.56 3.56 0 0 0-1.334-1.657c-.599-.398-1.302-.595-2.013-.566-1.434-.062-2.809.803-3.347 2.223-.298.741-.478 1.544-.418 2.346h7.59c0-.803-.12-1.605-.478-2.346zm-7.112 4.816c0 2.964 1.554 4.878 4.303 4.878 1.554.062 3.048-.556 4.064-1.791l2.211 2.099c-1.614 1.852-3.944 2.841-6.275 2.717-4.243 0-7.59-2.285-7.59-8.892 0-5.619 2.809-8.892 7.172-8.892 4.482 0 7.111 3.396 7.111 8.336v1.544h-10.996zm19.482 7.657h-2.808l-6.156-17.352h3.586l4.004 12.226 3.944-12.226h3.586l-6.156 17.352zm10.578 0h-3.406V10.312h3.406v17.352zm-3.526-20.81V3.149h3.586v3.705h-3.586zM200.5 15.19c-.538-1.359-1.853-2.285-3.287-2.223-1.435-.062-2.809.803-3.347 2.223-.299.741-.478 1.544-.418 2.346h7.589c-.059-.803-.179-1.605-.537-2.346zm-7.112 4.816c0 2.964 1.494 4.878 4.303 4.878 1.554.062 3.048-.556 4.064-1.791l2.151 2.099c-1.614 1.852-3.944 2.841-6.335 2.717-4.243 0-7.589-2.285-7.589-8.892 0-5.619 2.808-8.892 7.111-8.892 4.482 0 7.112 3.396 7.112 8.336v1.544h-10.817zm22.172-5.619c-.598-.741-1.554-1.173-2.51-1.173-1.853 0-3.347 1.544-3.347 3.89v10.559h-3.407V10.312h3.287v1.914c1.076-1.358 2.749-2.161 4.482-2.1 1.495-.062 2.989.556 4.004 1.667l-2.509 2.593zm-202.293.556c6.992 0 15.419-1.667 15.419-8.398C28.686 1.791 23.845 0 19.363 0 12.55 0 0 3.767 0 17.228c0 6.731 5.139 10.621 13.267 10.621 8.606 0 14.881-5.619 16.793-13.153-5.08 8.707-11.474 11.424-16.733 11.424-6.514 0-9.024-4.816-9.024-9.015.06-11.732 9.263-15.746 15.06-15.746 3.944 0 6.215 2.532 6.215 5.31 0 7.595-10.996 7.41-16.016 7.41h-2.39L6.096 15.19c3.108.37 6.096 1.297 8.904 2.717 7.171 3.643 13.924 13.153 22.829 13.153 3.227 0 4.064-.988 4.661-1.852-4.363 2.779-11.713-2.038-15.658-5.804-3.167-3.149-6.036-6.607-13.566-8.46z" fill="#9c9c9c"/></svg>