<svg xmlns="http://www.w3.org/2000/svg" width="145" height="32" fill="#9c9c9c" xmlns:v="https://vecta.io/nano"><path d="M89.783 13.396L81.96 5.431v-.055c-.476-.459-1.106-.709-1.757-.697a2.47 2.47 0 0 0-1.732.76 2.64 2.64 0 0 0-.735 1.79c-.011.673.231 1.323.675 1.815l.053.047 7.709 8.076h3.648v-3.77h-.038zm1.338 8.881l7.808 7.966.053.055c.471.485 1.109.758 1.773.757s1.303-.274 1.772-.761a2.63 2.63 0 0 0 .732-1.832 2.63 2.63 0 0 0-.736-1.831l-.045-.047-7.709-8.076h-3.648v3.77zm3.625-5.111l7.709-8.076.053-.047c.444-.492.686-1.143.675-1.815a2.64 2.64 0 0 0-.735-1.79 2.47 2.47 0 0 0-1.732-.76c-.651-.012-1.281.238-1.757.697l-.046.055-7.793 7.965v3.77h3.625zm-8.609 1.341l-7.701 8.068-.053.047a2.65 2.65 0 0 0-.731 1.845 2.68 2.68 0 0 0 .196.996 2.61 2.61 0 0 0 .55.842 2.52 2.52 0 0 0 .82.561 2.45 2.45 0 0 0 .965.194 2.48 2.48 0 0 0 1.779-.771l.046-.055 7.815-7.958v-3.778h-3.656l-.031.008zm-65.165 8.62l-.924-13.659-.175-4.267-.931 3.943-3.915 13.983h-4.228L7.272 13.72l-1-4.527-.176 4.598-.855 13.336H.297l2.29-25.56H8.96l3.236 12.8a40.18 40.18 0 0 1 .855 4.046l.916-4.156L17.31 1.568h6.335l2.206 25.56h-4.877zm21.66.954c-1.082-.435-1.986-1.239-2.564-2.279-.341.36-.708.692-1.099.994-1.092.726-2.374 1.087-3.671 1.033-4.053 0-6.258-2.137-6.258-5.883 0-4.416 2.954-6.475 8.754-6.475h1.069v-.789c0-2.098-.397-2.8-2.137-2.8-1.526 0-3.312.789-5.266 2.137l-2.03-3.533a17.51 17.51 0 0 1 2.954-1.577c1.569-.723 3.266-1.099 4.984-1.104 3.053 0 5.159 1.175 5.869 3.273.323 1.095.432 2.245.32 3.383l-.107 6.309c0 2.058.107 2.942 1.71 4.196l-2.526 3.115zm-4.06-9.196c-3.305 0-4.449.631-4.449 2.871a2.31 2.31 0 0 0 .091.911 2.26 2.26 0 0 0 .437.797 2.17 2.17 0 0 0 .709.55 2.11 2.11 0 0 0 .862.211 3.36 3.36 0 0 0 1.38-.374 3.47 3.47 0 0 0 1.115-.919l.069-4.046h-.214zm15.15 8.683c-2.419 0-4.343-1.104-4.907-2.76a7.01 7.01 0 0 1-.321-2.902V11.653h-1.816V8.302h1.816a34.21 34.21 0 0 1 .176-4.456L53.508 2.6a58.69 58.69 0 0 0-.282 5.702h4.266l-1.206 3.383h-3.053v9.464c0 2.366.427 3.013 2.061 3.013a6.21 6.21 0 0 0 1.71-.363l.603 2.942a9.8 9.8 0 0 1-3.885.828zM68.628 12.6a2.58 2.58 0 0 0-1.389-.363 3.72 3.72 0 0 0-1.631.447 3.85 3.85 0 0 0-1.285 1.13v13.313h-4.77V14.548a17.69 17.69 0 0 0-.672-5.521l4.266-1.175c.456.819.717 1.738.763 2.681 1.03-1.435 2.496-2.681 4.274-2.681.616-.022 1.228.116 1.778.402L68.628 12.6zm5.014-6.435a2.86 2.86 0 0 1-1.123-.237c-.355-.154-.678-.38-.95-.663s-.486-.619-.632-.988a3.12 3.12 0 0 1-.218-1.163c.008-.814.327-1.591.888-2.163S72.923.058 73.711.06c.386.001.767.081 1.122.235s.678.38.948.664.484.62.627.99a3.1 3.1 0 0 1 .21 1.163 3.13 3.13 0 0 1-.225 1.175 3.05 3.05 0 0 1-.646.994 2.94 2.94 0 0 1-.967.66c-.362.152-.749.228-1.139.223zm-2.366 20.963V8.625l4.77-.789v19.291h-4.77zm35.948-20.963c-.386-.002-.767-.083-1.123-.237a2.93 2.93 0 0 1-.948-.664c-.271-.284-.485-.619-.63-.989a3.12 3.12 0 0 1-.215-1.163c.006-.813.323-1.59.883-2.162s1.314-.892 2.101-.89a2.83 2.83 0 0 1 1.122.235 2.9 2.9 0 0 1 .948.664 3.02 3.02 0 0 1 .628.99 3.1 3.1 0 0 1 .21 1.163 3.13 3.13 0 0 1-.225 1.175 3.05 3.05 0 0 1-.646.994 2.94 2.94 0 0 1-.967.66 2.86 2.86 0 0 1-1.138.223zm-2.366 20.963V8.625l4.762-.789v19.291h-4.762zm20.835.954c-1.081-.435-1.986-1.239-2.564-2.279a8.94 8.94 0 0 1-1.099.994c-1.092.726-2.374 1.087-3.671 1.033-4.053 0-6.259-2.137-6.259-5.883 0-4.416 2.954-6.475 8.755-6.475h1.068v-.789c0-2.098-.397-2.8-2.137-2.8-1.526 0-3.312.789-5.266 2.137l-2.03-3.478a17.52 17.52 0 0 1 2.953-1.577 12 12 0 0 1 4.984-1.104c3.053 0 5.16 1.175 5.869 3.273a8.87 8.87 0 0 1 .321 3.383l-.107 6.309c0 2.058.107 2.942 1.71 4.196l-2.527 3.06zm-4.045-9.196c-3.304 0-4.442.631-4.442 2.871-.031.307-.001.618.089.912s.239.566.436.798a2.18 2.18 0 0 0 .71.55 2.09 2.09 0 0 0 .864.208c.477-.027.942-.156 1.368-.379s.802-.534 1.105-.915l.069-4.046h-.199zm18.531 8.241V14.879c0-2.129-.358-2.76-1.602-2.76a5.5 5.5 0 0 0-3.313 1.696v13.313h-4.77V13.467a14.05 14.05 0 0 0-.641-4.417l4.236-1.246a4.93 4.93 0 0 1 .679 2.366 20.87 20.87 0 0 1 2.099-1.396c1.02-.514 2.139-.784 3.274-.789 2.03 0 3.816 1.096 4.381 2.721a7.95 7.95 0 0 1 .351 2.681v13.738h-4.694z"/></svg>