<svg xmlns="http://www.w3.org/2000/svg" width="91" height="32" fill="#9c9c9c" xmlns:v="https://vecta.io/nano"><path d="M90.746 21.945c-.39.454-.709 1.024-1.184 1.338-1.076.711-2.165.321-3.124-.982-3.986 1.751-7.402 1.017-9.589-2.06a7.9 7.9 0 0 1-1.437-4.774 7.87 7.87 0 0 1 1.694-4.682c1.114-1.39 2.668-2.323 4.384-2.631a7.1 7.1 0 0 1 4.98.95c1.157-1.247 2.087-1.548 3.124-.844.471.32.779.898 1.16 1.36l-.007 12.325zm-11.454-6.227a3.67 3.67 0 0 0 1.044 2.507 3.4 3.4 0 0 0 2.437 1.025c1.884-.014 3.475-1.651 3.465-3.567s-1.608-3.577-3.46-3.586c-.924.003-1.809.386-2.462 1.064a3.7 3.7 0 0 0-1.023 2.558zM62.26 23.136v4.459 1.169c-.066 1.333-1.009 2.264-2.292 2.279s-2.289-.907-2.372-2.203c-.053-.828-.024-1.664-.026-2.495l-.011-15.436c0-1.152.234-2.131 1.278-2.691.995-.536 1.917-.345 2.782.394.135.114.501.034.716-.062 4.488-2.027 9.669.663 10.651 5.582.589 2.947-.177 5.543-2.319 7.576-2.186 2.075-4.766 2.593-7.603 1.695l-.803-.268zm3.253-11.07c-.481-.005-.958.089-1.404.277a3.64 3.64 0 0 0-1.194.816 3.8 3.8 0 0 0-.8 1.23 3.91 3.91 0 0 0-.283 1.455 3.9 3.9 0 0 0 .606 2.11 3.69 3.69 0 0 0 1.632 1.406 3.53 3.53 0 0 0 2.109.228 3.61 3.61 0 0 0 1.875-1.027 3.84 3.84 0 0 0 1.011-1.936c.145-.735.078-1.498-.194-2.193a3.77 3.77 0 0 0-1.334-1.712 3.56 3.56 0 0 0-2.024-.654zm-21.762 11.07l-.008 5.571a2.36 2.36 0 0 1-.417 1.353 2.23 2.23 0 0 1-1.101.843c-.952.312-1.898.193-2.523-.655a3.23 3.23 0 0 1-.617-1.765l-.029-18.004c0-1.023.383-1.821 1.276-2.289s1.819-.387 2.588.302c.396.354.675.147 1.01 0 4.464-1.918 9.457.684 10.493 5.516.647 3.006-.12 5.629-2.31 7.704s-4.726 2.563-7.527 1.696a21.93 21.93 0 0 1-.836-.273zm3.175-3.521a3.54 3.54 0 0 0 2.024-.628 3.75 3.75 0 0 0 1.347-1.69 3.92 3.92 0 0 0 .216-2.183 3.83 3.83 0 0 0-.988-1.939 3.6 3.6 0 0 0-1.859-1.042 3.51 3.51 0 0 0-2.103.207 3.67 3.67 0 0 0-1.637 1.386c-.402.62-.618 1.35-.62 2.097-.006 2.036 1.662 3.783 3.621 3.797v-.006zm-26.248-8.749v-8.19c.003-1.587.941-2.616 2.364-2.616s2.343 1.065 2.343 2.64l-.009 15.212c0 .664.116 1.091.788 1.37 1.097.468 1.579 1.695 1.246 2.842a2.48 2.48 0 0 1-.974 1.386c-.473.327-1.043.467-1.607.396-2.508-.284-4.125-2.152-4.146-4.849l-.005-8.191zm-8.342 5.022l3.7 3.522c1.16 1.105 1.306 2.64.353 3.719s-2.432 1.056-3.603-.048l-5.554-5.223c-1.201-1.132-1.211-2.733-.017-3.876l5.64-5.356c1.112-1.046 2.617-1.01 3.549.051s.812 2.556-.275 3.611l-3.793 3.6zm18.202-.051v-5.374c.009-1.539.995-2.571 2.424-2.562 1.378.008 2.354 1.046 2.358 2.551v10.83c0 1.53-1.037 2.651-2.387 2.64-1.386-.017-2.388-1.105-2.402-2.63l.006-5.454zM.771 6.334V2.748C.804 1.084 1.73.06 3.155.06c1.461.008 2.402 1.091 2.411 2.755v7.328c.01.523-.142 1.036-.433 1.463s-.706.746-1.185.91c-.968.329-2.082.062-2.624-.794a3.83 3.83 0 0 1-.528-1.728C.717 8.781.773 7.555.771 6.334zm4.671 14.995c0 1.502-.892 2.464-2.292 2.462-1.333 0-2.285-1.001-2.291-2.409s1.007-2.507 2.318-2.495 2.262 1.032 2.265 2.442z"/></svg>