<svg xmlns="http://www.w3.org/2000/svg" width="102" height="24" fill="none" xmlns:v="https://vecta.io/nano"><path d="M9.637.197v.709c-.831.091-1.392.229-1.729.389s-.517.526-.517 1.075a2.62 2.62 0 0 0 .112.732l.359 1.029 5.008 12.254 4.245-10.837.561-1.669c.18-.594.27-1.029.27-1.326a1.41 1.41 0 0 0-.853-1.349c-.359-.16-.831-.251-1.437-.297V.197h6.625v.709c-.764.069-1.325.32-1.662.8-.337.457-.831 1.509-1.482 3.178L12.31 22.26c-.135.297-.225.503-.315.617s-.18.183-.314.183c-.157 0-.292-.091-.404-.274s-.225-.412-.359-.686L3.663 4.404c-.584-1.44-1.213-2.401-1.864-2.926C1.394 1.18.833.997.069.906V.197h9.568zM31.018.129v15.432c0 1.098.157 1.966.449 2.629.584 1.212 1.684 1.829 3.257 1.829 1.078 0 2.134-.366 3.189-1.075.584-.389 1.19-.96 1.797-1.669V4.061c0-1.257-.247-2.058-.719-2.446s-1.415-.617-2.83-.709v-.8h7.569v17.17c0 1.052.18 1.783.561 2.195s1.168.572 2.358.526v.709l-1.886.526-2.021.64-2.65 1.029c-.09 0-.112-.046-.135-.114s-.022-.16-.022-.274v-3.955c-1.078 1.303-2.066 2.263-2.965 2.904-1.348.96-2.785 1.44-4.29 1.44-1.37 0-2.672-.503-3.908-1.486s-1.864-2.629-1.864-4.938V3.97c0-1.28-.247-2.149-.786-2.583-.337-.274-1.056-.457-2.156-.572V.106h7.052v.023zm20.954 3.178C53.926 1.135 56.441.06 59.518.06c3.054 0 5.592 1.029 7.613 3.086 1.999 2.058 3.01 4.778 3.01 8.208 0 3.132-.966 5.876-2.92 8.185s-4.469 3.475-7.569 3.475c-2.965 0-5.48-1.12-7.546-3.338s-3.077-5.03-3.077-8.391c0-3.155.966-5.807 2.942-7.979zm3.683-.663c-1.55 1.44-2.336 3.932-2.336 7.453 0 2.812.629 5.441 1.887 7.865 1.258 2.446 2.987 3.658 5.21 3.658 1.752 0 3.077-.823 4.02-2.446s1.415-3.772 1.415-6.402a17.26 17.26 0 0 0-1.797-7.728c-1.19-2.423-2.942-3.635-5.211-3.635a4.55 4.55 0 0 0-3.189 1.235zM72.477 22.1c1.46-.114 2.426-.389 2.897-.8.472-.389.719-1.235.719-2.538V7.811c0-1.578-.157-2.721-.449-3.407s-.831-1.029-1.617-1.029c-.157 0-.382.023-.629.069l-.831.16v-.777l2.785-.96 1.999-.732L79.821.106c.112 0 .18.046.202.137s.045.274.045.549v4.001c.988-1.44 1.954-2.584 2.875-3.384S84.829.197 85.818.197c.786 0 1.438.251 1.931.754s.741 1.12.741 1.875c0 .663-.18 1.235-.561 1.692s-.853.686-1.437.686-1.168-.274-1.774-.846c-.584-.572-1.056-.846-1.392-.846-.539 0-1.19.457-1.999 1.349-.786.915-1.19 1.852-1.19 2.812V18.51c0 1.372.314 2.309.966 2.835.629.526 1.707.777 3.189.754v.777H72.477V22.1zM97.474.197c.202-.069.18.229.18.366V17.87c0 1.829.225 2.972.651 3.429.449.457 1.415.754 2.964.892v.709H89.725v-.709c1.707-.16 2.763-.457 3.212-.869.449-.434.651-1.555.651-3.429V6.233c0-1.029-.067-1.76-.202-2.149-.247-.663-.719-.983-1.482-.983-.18 0-.337.023-.494.046s-.629.16-1.415.389v-.937c0-.023 3.391-1.097 7.479-2.401z" fill="#9c9c9c"/></svg>