<svg xmlns="http://www.w3.org/2000/svg" width="32" height="32" fill="none" xmlns:v="https://vecta.io/nano"><path d="M16 21.5a1 1 0 0 1-1-1V17h-3.5a1 1 0 1 1 0-2H15v-3.5a1 1 0 1 1 2 0V15h3.5a1 1 0 1 1 0 2H17v3.5a1 1 0 0 1-1 1z" fill="url(#A)"/><path fill-rule="evenodd" d="M9 1a8 8 0 0 0-8 8v14a8 8 0 0 0 8 8h14a8 8 0 0 0 8-8V10.304a4 4 0 0 0-1.271-2.924l-5.682-5.304A4 4 0 0 0 21.318 1H9zM3 9a6 6 0 0 1 6-6h12v3a4 4 0 0 0 4 4h3.977a1.99 1.99 0 0 1 .023.304V23a6 6 0 0 1-6 6H9a6 6 0 0 1-6-6V9zm20-3V3.835L27.463 8H25a2 2 0 0 1-2-2z" fill="url(#B)"/><defs><linearGradient id="A" x1="16" y1="10.5" x2="16" y2="21.5" gradientUnits="userSpaceOnUse"><stop stop-color="#17e3a6"/><stop offset="1" stop-color="#ff669f"/></linearGradient><linearGradient id="B" x1="16" y1="1" x2="16" y2="31" gradientUnits="userSpaceOnUse"><stop stop-color="#17e3a6"/><stop offset="1" stop-color="#ff669f"/></linearGradient></defs></svg>