<svg xmlns="http://www.w3.org/2000/svg" width="144" height="143" fill="none" xmlns:v="https://vecta.io/nano"><path d="M133 71.5c0 33.398-27.296 60.5-61 60.5s-61-27.102-61-60.5S38.296 11 72 11s61 27.102 61 60.5z" fill="url(#A)" stroke="#fff" stroke-width="4"/><ellipse cx="71.506" cy="72" rx="45.506" ry="45" fill="#030303"/><path d="M61.939 72.939a1.5 1.5 0 0 1 1.063-.441 1.5 1.5 0 0 1 1.063.441l6.436 6.436V61a1.5 1.5 0 0 1 1.5-1.5 1.5 1.5 0 0 1 1.5 1.5v18.375l6.439-6.436c.282-.282.664-.44 1.063-.44s.781.158 1.063.44.44.664.44 1.063-.158.781-.44 1.063l-9 9a1.5 1.5 0 0 1-1.062.441 1.5 1.5 0 0 1-1.062-.441l-9-9a1.5 1.5 0 0 1-.441-1.062 1.5 1.5 0 0 1 .441-1.062z" fill="#fff"/><path d="M143.937 68.479l.056 2.011-.5.007.007 1.004-.007 1.004.5.007-.056 2.011-.5-.021-.111 1.997.498.035-.168 2.003-.498-.049-.224 1.989.496.063-.281 1.99-.494-.077-.337 1.973.492.091-.394 1.972-.489-.105-.448 1.948.486.119-.506 1.948-.482-.133-.558 1.918.478.146-.617 1.917-.474-.16-.665 1.882.469.173-.725 1.879-.464-.187-.772 1.842.458.2-.831 1.834-.452-.213-.876 1.797.446.225-.932 1.783-.44-.238-.976 1.745.432.25-1.031 1.727-.426-.262-1.073 1.687.418.274-1.128 1.667-.41-.286-1.166 1.623.402.298-1.22 1.601-.393-.309-1.255 1.556.385.319-1.308 1.531-.375-.33-1.34 1.483.366.34-1.391 1.455-.356-.35-1.421 1.406.347.36-1.47 1.375-.336-.369-1.497 1.324.326.379-1.544 1.292-.315-.388-1.568 1.239.304.396-1.613 1.204-.294-.405-1.635 1.15.282.413-1.677 1.111-.27-.42-1.698 1.057.259.428-1.737 1.016-.246-.435-1.753.961.234.442-1.791.917-.222-.448-1.803.861.209.454-1.841.817-.196-.46-1.848.758.183.465-1.884.713-.17-.471-1.887.654.157.475-1.921.605-.144-.479-1.922.547.13.483-1.95.496-.117-.486-1.951.439.103.489-1.973.386-.089-.492-1.975.33.076.494-1.99.276-.062-.496-1.989.219.048.498-2.003.165-.034-.499-1.997.11.021.499-2.011.055-.007-.5L72 142.5c-.335 0-.67-.002-1.004-.007l-.007.5-2.011-.055.02-.499-1.997-.11-.034.499-2.003-.165.048-.498-1.99-.219-.062.496-1.99-.276.076-.494-1.975-.33-.089.492-1.973-.386.103-.489-1.951-.439-.117.486-1.95-.496.13-.483-1.922-.547-.144.479-1.92-.605.157-.475-1.887-.654-.17.471-1.884-.713.183-.465-1.848-.758-.196.46-1.841-.817.209-.454-1.803-.861-.222.448-1.791-.917.234-.442-1.753-.961-.246.435-1.736-1.016.258-.428-1.697-1.057-.27.42-1.678-1.111.282-.413-1.635-1.15-.293.405-1.613-1.204.305-.396-1.568-1.239-.316.388-1.544-1.292.326-.379-1.497-1.324-.337.369-1.47-1.375.347-.36-1.421-1.406-.357.35-1.391-1.455.366-.34-1.34-1.483-.376.33-1.307-1.531.385-.319-1.255-1.556-.393.309-1.22-1.601.402-.298-1.166-1.623-.41.286-1.128-1.667.418-.274-1.073-1.687-.426.262-1.032-1.727.433-.25-.976-1.745-.44.238-.933-1.783.446-.225-.876-1.797-.453.213-.83-1.834.458-.2-.772-1.842-.464.187-.725-1.879.469-.173-.666-1.882-.474.16-.617-1.917.478-.146-.557-1.918-.482.133-.506-1.948.486-.119-.448-1.948-.489.105-.394-1.972.492-.091-.336-1.973-.494.077-.281-1.99.496-.063-.224-1.989-.498.049-.169-2.003.499-.035-.112-1.997-.5.021-.056-2.011.5-.007L.5 71.5l.007-1.004-.5-.007.056-2.011.5.021.112-1.997-.499-.035.169-2.003.498.049.224-1.989-.496-.063.281-1.99.494.077.336-1.973-.492-.091.394-1.972.489.105.448-1.949-.486-.119.506-1.948.482.133.557-1.918-.478-.146.617-1.917.474.16.666-1.882-.469-.173.725-1.879.464.187.772-1.843-.458-.2.83-1.834.452.213.876-1.797-.446-.225.933-1.783.44.238.976-1.745-.433-.25 1.032-1.727.426.262 1.073-1.687-.418-.274 1.128-1.667.41.286 1.166-1.623-.402-.297 1.22-1.601.393.309 1.255-1.555-.385-.319 1.307-1.531.376.33 1.34-1.483-.366-.34 1.391-1.455.357.35 1.421-1.406-.347-.36 1.47-1.375.337.37 1.497-1.324-.326-.379 1.544-1.292.315.388 1.568-1.239-.305-.396 1.613-1.203.293.405 1.635-1.15-.282-.413 1.678-1.111.27.421 1.697-1.057-.258-.428 1.736-1.016.246.435 1.753-.961-.234-.442 1.791-.917.222.448 1.803-.861-.209-.454 1.841-.816.196.46 1.848-.758-.183-.465 1.884-.712.17.47 1.887-.653-.157-.475 1.92-.605.144.479 1.922-.547-.13-.483 1.95-.496.117.486 1.951-.439-.103-.489 1.973-.386.089.492 1.975-.33-.075-.494 1.99-.276.062.496 1.99-.219-.048-.498 2.003-.165.034.499 1.997-.109-.021-.5 2.011-.055.007.5L72 .5l1.004.007.007-.5 2.011.055-.02.5 1.997.109.034-.499 2.003.165-.048.498 1.99.219.062-.496 1.99.276-.075.494 1.975.33.089-.492 1.973.386-.103.489 1.951.439.116-.486 1.95.496-.13.483 1.922.547.144-.479 1.921.605-.157.475 1.887.653.17-.47 1.885.712-.183.465 1.848.758.196-.46 1.841.816-.209.454 1.803.861.222-.448 1.791.917-.234.442 1.753.961.246-.435 1.737 1.016-.259.428 1.698 1.057.27-.421 1.677 1.111-.282.413 1.635 1.15.294-.405 1.613 1.204-.304.397 1.568 1.239.315-.388 1.544 1.292-.326.379 1.497 1.324.336-.37 1.47 1.375-.347.36 1.421 1.406.356-.351 1.391 1.455-.366.34 1.34 1.483.375-.33 1.308 1.531-.385.319 1.255 1.555.393-.309 1.22 1.601-.402.297 1.166 1.623.41-.286 1.128 1.667-.418.274 1.073 1.687.426-.262 1.031 1.727-.432.25.976 1.745.44-.238.932 1.783-.446.225.876 1.797.452-.213.831 1.834-.458.2.772 1.843.463-.187.726 1.879-.469.173.665 1.882.474-.16.617 1.917-.478.146.558 1.918.482-.133.506 1.948-.486.119.448 1.948.489-.105.394 1.972-.492.091.337 1.973.494-.077.281 1.99-.496.063.224 1.989.498-.049.168 2.003-.498.035.111 1.997.5-.021z" stroke="#030303" stroke-dasharray="2 2"/><defs><linearGradient id="A" x1="72" y1="9" x2="72" y2="134" gradientUnits="userSpaceOnUse"><stop stop-color="#a81aff"/><stop offset="1" stop-color="#73e5e2"/></linearGradient></defs></svg>