<svg xmlns="http://www.w3.org/2000/svg" width="24" height="24" fill="none" xmlns:v="https://vecta.io/nano"><path fill-rule="evenodd" d="M16 3H8a5 5 0 0 0-5 5v8a5 5 0 0 0 5 5h8a5 5 0 0 0 5-5V8a5 5 0 0 0-5-5zm3.25 13A3.26 3.26 0 0 1 16 19.25H8A3.26 3.26 0 0 1 4.75 16V8A3.26 3.26 0 0 1 8 4.75h8A3.26 3.26 0 0 1 19.25 8v8zm-2.5-7.75a1 1 0 1 0 0-2 1 1 0 1 0 0 2zM12 7.5a4.5 4.5 0 1 0 0 9 4.5 4.5 0 0 0 4.5-4.5A4.49 4.49 0 0 0 12 7.5zM9.25 12a2.75 2.75 0 1 0 5.5 0 2.75 2.75 0 1 0-5.5 0z" fill="url(#A)"/><defs><linearGradient id="A" x1="3" y1="12" x2="21" y2="12" gradientUnits="userSpaceOnUse"><stop stop-color="#17e3a6"/><stop offset="1" stop-color="#ff669f"/></linearGradient></defs></svg>