<svg xmlns="http://www.w3.org/2000/svg" width="22" height="20" fill="none" xmlns:v="https://vecta.io/nano"><path d="M11 3.5l-.54.52a.75.75 0 0 0 .54.23.75.75 0 0 0 .54-.23L11 3.5zM6.001 14.42a.75.75 0 0 0-1.057.103.75.75 0 0 0 .103 1.057l.954-1.16zm-4.659-3.009a.75.75 0 0 0 .447.36.75.75 0 0 0 .571-.062.75.75 0 0 0 .36-.447.75.75 0 0 0-.062-.571l-1.316.72zm.408-4.274c0-2.15 1.215-3.954 2.874-4.713 1.612-.737 3.778-.542 5.836 1.596l1.08-1.039C9.1.444 6.264.025 4 1.06 1.786 2.073.25 4.425.25 7.137h1.5zM7.497 17.5l1.62 1.16c.557.325 1.193.59 1.883.59v-1.5c-.31 0-.674-.12-1.126-.385s-.922-.628-1.448-1.043L7.497 17.5zm7.006 0c1.426-1.125 3.25-2.413 4.68-4.024 1.457-1.64 2.567-3.673 2.567-6.339h-1.5c0 2.198-.9 3.891-2.188 5.343-1.315 1.48-2.972 2.647-4.488 3.842l.929 1.178zM21.75 7.137c0-2.712-1.535-5.064-3.75-6.077-2.264-1.035-5.098-.616-7.54 1.92l1.08 1.04c2.058-2.137 4.224-2.333 5.836-1.596 1.659.759 2.874 2.562 2.874 4.713h1.5zm-8.176 9.185l-1.448 1.043c-.452.264-.816.385-1.126.385v1.5c.69 0 1.326-.265 1.883-.59s1.107-.756 1.62-1.16l-.929-1.178zm-5.148 0L6.001 14.42l-.954 1.16 2.45 1.92.929-1.178zm-5.768-5.63a7.25 7.25 0 0 1-.908-3.555H.25a8.75 8.75 0 0 0 1.092 4.274l1.316-.719z" fill="#ff669f"/></svg>