<svg xmlns="http://www.w3.org/2000/svg" width="24" height="24" fill="none" xmlns:v="https://vecta.io/nano"><path d="M20.973 6.717a7.19 7.19 0 0 1-1.663 1.6v.494a10.97 10.97 0 0 1-3.258 7.822 10.96 10.96 0 0 1-7.858 3.164c-1.698.006-3.374-.382-4.898-1.133-.082-.036-.135-.117-.135-.207v-.099c0-.129.105-.234.234-.234a7.96 7.96 0 0 0 4.601-1.654c-1.511-.03-2.87-.925-3.496-2.302-.032-.075-.022-.161.026-.228s.126-.102.208-.096c.459.046.923.003 1.366-.126A3.92 3.92 0 0 1 3 10.296c-.006-.081.03-.16.096-.208s.152-.058.227-.026a3.59 3.59 0 0 0 1.42.306 3.85 3.85 0 0 1-1.537-4.441c.057-.161.195-.28.363-.313s.34.024.455.151c1.972 2.099 4.682 3.35 7.558 3.488-.074-.294-.11-.596-.108-.899a3.92 3.92 0 0 1 2.489-3.584c1.479-.579 3.162-.208 4.26.941.748-.143 1.472-.394 2.148-.746.05-.031.112-.031.162 0 .031.05.031.112 0 .162a3.93 3.93 0 0 1-1.582 1.798 7.71 7.71 0 0 0 1.797-.432c.049-.033.113-.033.162 0 .041.019.072.054.084.098s.005.09-.021.127z" fill="url(#A)"/><defs><linearGradient id="A" x1="2.999" y1="12.15" x2="20.999" y2="12.15" gradientUnits="userSpaceOnUse"><stop stop-color="#17e3a6"/><stop offset="1" stop-color="#ff669f"/></linearGradient></defs></svg>