<svg xmlns="http://www.w3.org/2000/svg" width="32" height="32" fill="none" xmlns:v="https://vecta.io/nano"><g clip-path="url(#B)"><path d="M30.748 8.816a1.25 1.25 0 0 0 1.25-1.25V6.254C31.998 2.805 29.192 0 25.744 0L6.104.009A6.38 6.38 0 0 0 1.729 1.97a6.16 6.16 0 0 0-1.723 4.5C.004 6.502.003 24.496.003 24.496.003 28.634 3.369 32 7.506 32h18.238c3.448 0 6.254-2.805 6.254-6.254v-9.489c0-3.448-2.806-6.254-6.254-6.254H6.252c-2.007 0-3.652-1.568-3.745-3.571-.048-1.018.319-1.99 1.031-2.737a3.87 3.87 0 0 1 2.785-1.192L25.744 2.5a3.76 3.76 0 0 1 3.754 3.754v1.312a1.25 1.25 0 0 0 1.25 1.25zM6.252 12.503h19.492a3.76 3.76 0 0 1 3.754 3.754v9.489a3.76 3.76 0 0 1-3.754 3.754H7.506a5.01 5.01 0 0 1-5.004-5.004V11.258a6.23 6.23 0 0 0 3.749 1.245zm20.747 8.499c0 .863-.699 1.562-1.562 1.562-2.072-.082-2.072-3.043 0-3.125.863 0 1.562.699 1.562 1.562zm0-14.748a1.25 1.25 0 0 0-1.25-1.25H6.252c-1.658.066-1.657 2.434 0 2.5h19.497a1.25 1.25 0 0 0 1.25-1.25z" fill="url(#A)"/></g><defs><linearGradient id="A" x1="16" y1="0" x2="16" y2="32" gradientUnits="userSpaceOnUse"><stop stop-color="#17e3a6"/><stop offset="1" stop-color="#ff669f"/></linearGradient><clipPath id="B"><path fill="#fff" d="M0 0h32v32H0z"/></clipPath></defs></svg>